<?xml version="1.0" standalone="no"?>
<!DOCTYPE svg PUBLIC "-//W3C//DTD SVG 20010904//EN"
 "http://www.w3.org/TR/2001/REC-SVG-20010904/DTD/svg10.dtd">
<svg version="1.0" xmlns="http://www.w3.org/2000/svg"
 width="225.000000pt" height="225.000000pt" viewBox="0 0 225.000000 225.000000"
 preserveAspectRatio="xMidYMid meet">
<metadata>
Created by potrace 1.11, written by Peter Selinger 2001-2013
</metadata>
<g transform="translate(0.000000,225.000000) scale(0.100000,-0.100000)"
fill="#000000" stroke="none">
<path d="M935 2156 c-426 -81 -765 -423 -841 -846 -16 -90 -18 -260 -3 -350
81 -511 515 -880 1034 -880 358 0 672 167 872 465 193 286 227 665 91 993
-119 287 -387 516 -703 602 -102 28 -344 36 -450 16z m473 -361 c45 -15 96
-38 112 -52 l30 -25 0 -231 c0 -203 3 -240 20 -295 24 -75 25 -137 6 -183 -8
-19 -46 -88 -85 -153 -39 -65 -80 -143 -91 -173 -11 -29 -32 -71 -46 -93 l-27
-41 -22 21 c-20 18 -34 20 -183 20 -155 0 -161 -1 -177 -22 l-16 -23 -19 25
c-25 33 -48 79 -54 110 -3 14 -37 79 -77 145 -128 215 -135 241 -99 357 17 55
20 92 20 305 l0 242 45 27 c50 29 154 64 189 64 22 0 23 -6 40 -167 9 -93 19
-189 23 -214 l5 -47 60 -12 c76 -15 198 3 198 29 0 9 9 106 20 216 11 110 20
201 20 202 0 3 -2 3 108 -32z m-513 -1240 l26 -46 26 21 c23 18 40 20 184 20
148 0 160 -1 171 -20 7 -11 16 -20 19 -20 4 0 20 20 36 45 27 44 28 44 35 19
7 -27 -11 -81 -43 -125 -19 -26 -19 -27 -61 -12 -60 21 -279 21 -330 0 -33
-14 -38 -14 -51 1 -31 36 -55 97 -50 130 3 17 7 32 8 32 2 0 15 -20 30 -45z"/>
</g>
</svg>
